<svg width="819" height="265" viewBox="0 0 819 265" fill="none" xmlns="http://www.w3.org/2000/svg">
<g opacity="0.2">
<g clip-path="url(#clip0_26_94)">
<path d="M259.865 86.4053H223.724V230.384H259.865V86.4053Z" fill="#B5C3C2"/>
<path d="M253.961 76.0814H229.628V136.592H253.961V76.0814Z" fill="#B5C3C2"/>
<path d="M248.539 69.5361H235.04V103.095H248.539V69.5361Z" fill="#B5C3C2"/>
<path d="M246.392 86.7813H237.187V63.913H240.506H243.798H246.392V86.7813Z" fill="#B5C3C2"/>
<path d="M241.186 76.8246H240.184V53.9473H240.542H240.9H241.186V76.8246Z" fill="#B5C3C2"/>
<path d="M243.396 68.9183H242.394V46.041H242.751H243.109H243.396V68.9183Z" fill="#B5C3C2"/>
<path d="M260.822 86.0381H222.758V87.5693H260.822V86.0381Z" fill="#B5C3C2"/>
<path d="M254.837 75.3472H228.734V76.8246H254.837V75.3472Z" fill="#B5C3C2"/>
<path d="M249.103 68.9183H234.056V70.0465H249.103V68.9183Z" fill="#B5C3C2"/>
<path opacity="0.29" d="M232.992 78.5348H231.865V84.8741H232.992V78.5348Z" fill="#B5C3C2"/>
<path opacity="0.29" d="M236.123 78.5348H234.995V84.8741H236.123V78.5348Z" fill="#B5C3C2"/>
<path opacity="0.29" d="M239.245 78.5348H238.118V84.8741H239.245V78.5348Z" fill="#B5C3C2"/>
<path opacity="0.29" d="M242.376 78.5348H241.249V84.8741H242.376V78.5348Z" fill="#B5C3C2"/>
<path opacity="0.29" d="M245.507 78.5348H244.38V84.8741H245.507V78.5348Z" fill="#B5C3C2"/>
<path opacity="0.29" d="M248.638 78.5348H247.511V84.8741H248.638V78.5348Z" fill="#B5C3C2"/>
<path opacity="0.29" d="M251.769 78.5348H250.642V84.8741H251.769V78.5348Z" fill="#B5C3C2"/>
<path d="M229.628 92.1447H226.891V99.666H229.628V92.1447Z" fill="#B5C3C2"/>
<path opacity="0.29" d="M235.04 92.1447H232.303V99.666H235.04V92.1447Z" fill="#B5C3C2"/>
<path d="M240.452 92.1447H237.715V99.666H240.452V92.1447Z" fill="#B5C3C2"/>
<path d="M245.865 92.1447H243.127V99.666H245.865V92.1447Z" fill="#B5C3C2"/>
<path d="M251.268 92.1447H248.539V99.666H251.268V92.1447Z" fill="#B5C3C2"/>
<path d="M256.68 92.1447H253.952V99.666H256.68V92.1447Z" fill="#B5C3C2"/>
<path d="M229.628 103.874H226.891V111.396H229.628V103.874Z" fill="#B5C3C2"/>
<path d="M235.04 103.874H232.303V111.396H235.04V103.874Z" fill="#B5C3C2"/>
<path d="M240.452 103.874H237.715V111.396H240.452V103.874Z" fill="#B5C3C2"/>
<path opacity="0.29" d="M245.865 103.874H243.127V111.396H245.865V103.874Z" fill="#B5C3C2"/>
<path d="M251.268 103.874H248.539V111.396H251.268V103.874Z" fill="#B5C3C2"/>
<path d="M256.68 103.874H253.952V111.396H256.68V103.874Z" fill="#B5C3C2"/>
<path d="M229.628 115.595H226.891V123.116H229.628V115.595Z" fill="#B5C3C2"/>
<path d="M235.04 115.595H232.303V123.116H235.04V115.595Z" fill="#B5C3C2"/>
<path d="M240.452 115.595H237.715V123.116H240.452V115.595Z" fill="#B5C3C2"/>
<path d="M245.865 115.595H243.127V123.116H245.865V115.595Z" fill="#B5C3C2"/>
<path opacity="0.29" d="M251.268 115.595H248.539V123.116H251.268V115.595Z" fill="#B5C3C2"/>
<path opacity="0.29" d="M256.68 115.595H253.952V123.116H256.68V115.595Z" fill="#B5C3C2"/>
<path opacity="0.29" d="M229.628 127.316H226.891V134.837H229.628V127.316Z" fill="#B5C3C2"/>
<path d="M235.04 127.316H232.303V134.837H235.04V127.316Z" fill="#B5C3C2"/>
<path d="M240.452 127.316H237.715V134.837H240.452V127.316Z" fill="#B5C3C2"/>
<path d="M245.865 127.316H243.127V134.837H245.865V127.316Z" fill="#B5C3C2"/>
<path d="M251.268 127.316H248.539V134.837H251.268V127.316Z" fill="#B5C3C2"/>
<path d="M256.68 127.316H253.952V134.837H256.68V127.316Z" fill="#B5C3C2"/>
<path d="M229.628 139.045H226.891V146.567H229.628V139.045Z" fill="#B5C3C2"/>
<path opacity="0.29" d="M235.04 139.045H232.303V146.567H235.04V139.045Z" fill="#B5C3C2"/>
<path d="M240.452 139.045H237.715V146.567H240.452V139.045Z" fill="#B5C3C2"/>
<path opacity="0.29" d="M245.865 139.045H243.127V146.567H245.865V139.045Z" fill="#B5C3C2"/>
<path d="M251.268 139.045H248.539V146.567H251.268V139.045Z" fill="#B5C3C2"/>
<path d="M256.68 139.045H253.952V146.567H256.68V139.045Z" fill="#B5C3C2"/>
<path d="M229.628 150.766H226.891V158.287H229.628V150.766Z" fill="#B5C3C2"/>
<path d="M235.04 150.766H232.303V158.287H235.04V150.766Z" fill="#B5C3C2"/>
<path d="M240.452 150.766H237.715V158.287H240.452V150.766Z" fill="#B5C3C2"/>
<path d="M245.865 150.766H243.127V158.287H245.865V150.766Z" fill="#B5C3C2"/>
<path d="M251.268 150.766H248.539V158.287H251.268V150.766Z" fill="#B5C3C2"/>
<path opacity="0.29" d="M256.68 150.766H253.952V158.287H256.68V150.766Z" fill="#B5C3C2"/>
<path d="M229.628 162.496H226.891V170.017H229.628V162.496Z" fill="#B5C3C2"/>
<path opacity="0.29" d="M235.04 162.496H232.303V170.017H235.04V162.496Z" fill="#B5C3C2"/>
<path opacity="0.29" d="M240.452 162.496H237.715V170.017H240.452V162.496Z" fill="#B5C3C2"/>
<path d="M245.865 162.496H243.127V170.017H245.865V162.496Z" fill="#B5C3C2"/>
<path d="M251.268 162.496H248.539V170.017H251.268V162.496Z" fill="#B5C3C2"/>
<path d="M256.68 162.496H253.952V170.017H256.68V162.496Z" fill="#B5C3C2"/>
<path d="M229.628 174.216H226.891V181.738H229.628V174.216Z" fill="#B5C3C2"/>
<path d="M235.04 174.216H232.303V181.738H235.04V174.216Z" fill="#B5C3C2"/>
<path d="M240.452 174.216H237.715V181.738H240.452V174.216Z" fill="#B5C3C2"/>
<path d="M245.865 174.216H243.127V181.738H245.865V174.216Z" fill="#B5C3C2"/>
<path opacity="0.29" d="M251.268 174.216H248.539V181.738H251.268V174.216Z" fill="#B5C3C2"/>
<path d="M256.68 174.216H253.952V181.738H256.68V174.216Z" fill="#B5C3C2"/>
<path d="M229.628 185.946H226.891V193.467H229.628V185.946Z" fill="#B5C3C2"/>
<path opacity="0.29" d="M235.04 185.946H232.303V193.467H235.04V185.946Z" fill="#B5C3C2"/>
<path d="M240.452 185.946H237.715V193.467H240.452V185.946Z" fill="#B5C3C2"/>
<path d="M245.865 185.946H243.127V193.467H245.865V185.946Z" fill="#B5C3C2"/>
<path d="M251.268 185.946H248.539V193.467H251.268V185.946Z" fill="#B5C3C2"/>
<path d="M256.68 185.946H253.952V193.467H256.68V185.946Z" fill="#B5C3C2"/>
<path d="M229.628 197.667H226.891V205.188H229.628V197.667Z" fill="#B5C3C2"/>
<path d="M235.04 197.667H232.303V205.188H235.04V197.667Z" fill="#B5C3C2"/>
<path d="M240.452 197.667H237.715V205.188H240.452V197.667Z" fill="#B5C3C2"/>
<path opacity="0.29" d="M245.865 197.667H243.127V205.188H245.865V197.667Z" fill="#B5C3C2"/>
<path d="M251.268 197.667H248.539V205.188H251.268V197.667Z" fill="#B5C3C2"/>
<path opacity="0.29" d="M256.68 197.667H253.952V205.188H256.68V197.667Z" fill="#B5C3C2"/>
<path opacity="0.29" d="M229.628 209.396H226.891V216.918H229.628V209.396Z" fill="#B5C3C2"/>
<path d="M235.04 209.396H232.303V216.918H235.04V209.396Z" fill="#B5C3C2"/>
<path opacity="0.29" d="M240.452 209.396H237.715V216.918H240.452V209.396Z" fill="#B5C3C2"/>
<path d="M245.865 209.396H243.127V216.918H245.865V209.396Z" fill="#B5C3C2"/>
<path d="M251.268 209.396H248.539V216.918H251.268V209.396Z" fill="#B5C3C2"/>
<path d="M256.68 209.396H253.952V216.918H256.68V209.396Z" fill="#B5C3C2"/>
<path d="M176.857 91.8851H118.764V213.175H176.857V91.8851Z" fill="#B5C3C2"/>
<path d="M178.503 89.7988H117.109V93.2281H178.503V89.7988Z" fill="#B5C3C2"/>
<path d="M174.907 85.4114H120.714V101.707H174.907V85.4114Z" fill="#B5C3C2"/>
<path d="M146.325 78.7407H124.865V96.5411H146.325V78.7407Z" fill="#B5C3C2"/>
<path d="M137.281 83.7549H124.865V74.3891H133.766L137.281 83.7549Z" fill="#B5C3C2"/>
<path d="M131.073 66.6082H129.865V87.4797H131.073V66.6082Z" fill="#B5C3C2"/>
<path d="M131.547 65.5247C131.552 65.7401 131.493 65.9521 131.378 66.1338C131.262 66.3155 131.095 66.4585 130.898 66.5446C130.701 66.6308 130.482 66.6561 130.27 66.6174C130.059 66.5786 129.863 66.4776 129.709 66.3272C129.555 66.1769 129.449 65.9839 129.405 65.773C129.361 65.5622 129.381 65.343 129.462 65.1434C129.543 64.9439 129.682 64.7731 129.861 64.6528C130.039 64.5325 130.249 64.4682 130.465 64.4682C130.747 64.4681 131.018 64.5785 131.221 64.7759C131.423 64.9733 131.54 65.2421 131.547 65.5247Z" fill="#B5C3C2"/>
<path d="M657.95 222.406H594.355L586.42 44.0712L657.95 58.9347V222.406Z" fill="#B5C3C2"/>
<path d="M380.498 120.564V60.9403H370.523V44.9755H366.963V21.5521H347.327V4.33369H345.583V21.5521H341.736V0H339.992V21.5521H327.584V60.9403H321.17V120.564H315.677V229.157H384.362V120.564H380.498Z" fill="#B5C3C2"/>
<path d="M797.387 220.195H37.5631V238.282H797.387V220.195Z" fill="#B5C3C2"/>
<path d="M484.823 233.849H451.178L464.284 166.417H484.823V233.849Z" fill="#95A9A7"/>
<path d="M808.086 236.482H10.3055V265H808.086V236.482Z" fill="#95A9A7"/>
<path d="M457.252 109.059V79.1795H446.446V67.799H440.667V58.2452H438.636V41.8595H438.117V58.2452H436.087V67.799H430.308V79.1795H419.582V109.059H417.354V163.319H400.733V225.164H417.354H433.976H459.399V109.059H457.252Z" fill="#95A9A7"/>
<path d="M519.336 143.388H467.048V144.337H469.41V232.846H516.974V144.337H519.336V143.388Z" fill="#95A9A7"/>
<path d="M280.896 165.432H234.53V239.159H280.896V165.432Z" fill="#95A9A7"/>
<path d="M227.544 203.209H147.81V239.159H227.544V203.209Z" fill="#95A9A7"/>
<path d="M208.051 122.884H190.544V211.169H208.051V122.884Z" fill="#95A9A7"/>
<path d="M195.321 99.3347H194.409V147.346H195.321V99.3347Z" fill="#95A9A7"/>
<path d="M198.282 102.97H197.37V150.981H198.282V102.97Z" fill="#95A9A7"/>
<path d="M202.594 117.422H191.895V129.25H202.594V117.422Z" fill="#95A9A7"/>
<path d="M254.882 178.631H224.422V239.159H254.882V178.631Z" fill="#95A9A7"/>
<path d="M345.583 114.583H288.402V239.159H345.583V114.583Z" fill="#95A9A7"/>
<path d="M339.965 110.294H294.02V131.041H339.965V110.294Z" fill="#95A9A7"/>
<path d="M350.02 117.189H283.973V118.648H350.02V117.189Z" fill="#95A9A7"/>
<path d="M304.987 176.24H278.042V239.15H304.987V176.24Z" fill="#95A9A7"/>
<path d="M115.981 173.849H85.065V239.15H115.981V173.849Z" fill="#95A9A7"/>
<path d="M156.676 156.103H95.0663V239.15H156.676V156.103Z" fill="#95A9A7"/>
<path d="M158.259 152.915H91.4702V156.103H158.259V152.915Z" fill="#95A9A7"/>
<path d="M124.865 144.274H97.7948V161.117H124.865V144.274Z" fill="#95A9A7"/>
<path d="M138.256 144.274H133.712V154.518H138.256V144.274Z" fill="#95A9A7"/>
<path d="M147.81 144.274H142.81V154.518H147.81V144.274Z" fill="#95A9A7"/>
<path d="M100.523 213.9H68.2381V239.159H100.523V213.9Z" fill="#95A9A7"/>
<path d="M71.3333 203.209H56.045V239.159H71.3333V203.209Z" fill="#95A9A7"/>
<path d="M63.6847 226.525H37.5631V239.15H63.6847V226.525Z" fill="#95A9A7"/>
<path d="M661.877 211.169H339.965V239.159H661.877V211.169Z" fill="#95A9A7"/>
<path d="M636.176 133.7C635.2 133.699 634.261 134.068 633.545 134.733C632.83 135.397 632.393 136.308 632.32 137.281L627.794 137.129C627.794 136.69 627.794 136.234 627.794 135.795C627.802 130.242 626.839 124.729 624.949 119.508L628.742 118.111C629.124 118.986 629.816 119.689 630.686 120.083C631.555 120.477 632.539 120.534 633.448 120.243C634.357 119.953 635.126 119.336 635.607 118.51C636.087 117.685 636.245 116.711 636.049 115.776C635.854 114.842 635.319 114.013 634.548 113.45C633.778 112.887 632.826 112.63 631.877 112.729C630.928 112.827 630.049 113.275 629.41 113.985C628.772 114.694 628.419 115.616 628.42 116.571C628.421 116.956 628.478 117.339 628.59 117.708L624.824 119.087C622.64 113.238 619.326 107.878 615.073 103.31L618.034 100.535C618.761 101.224 619.728 101.603 620.729 101.591C621.731 101.578 622.688 101.175 623.397 100.467C624.106 99.7592 624.512 98.8024 624.527 97.8001C624.542 96.7977 624.167 95.8288 623.48 95.0994C622.793 94.37 621.848 93.9376 620.848 93.8942C619.847 93.8507 618.869 94.1995 618.121 94.8666C617.374 95.5336 616.915 96.4662 616.844 97.4661C616.773 98.4661 617.094 99.4544 617.739 100.221L614.778 102.997C614.474 102.675 614.161 102.352 613.883 102.039C609.474 97.6091 604.237 94.0919 598.47 91.6881L600.089 87.7484C601.049 88.0513 602.089 87.9676 602.988 87.5151C603.887 87.0625 604.574 86.2768 604.903 85.3251C605.232 84.3733 605.178 83.3305 604.751 82.4184C604.324 81.5063 603.558 80.7968 602.617 80.4409C601.676 80.0849 600.633 80.1105 599.71 80.5123C598.787 80.914 598.057 81.6602 597.675 82.5921C597.294 83.5241 597.29 84.5683 597.666 85.5028C598.041 86.4373 598.766 87.1883 599.686 87.5961L598.058 91.5538C592.914 89.4743 587.447 88.3107 581.902 88.1155L582.081 82.6894H582.206C583.2 82.6175 584.127 82.1626 584.792 81.4205C585.457 80.6783 585.809 79.7068 585.773 78.7104C585.737 77.7139 585.317 76.7703 584.6 76.0781C583.883 75.3859 582.925 74.9991 581.929 74.9991C580.933 74.9991 579.976 75.3859 579.259 76.0781C578.542 76.7703 578.121 77.7139 578.085 78.7104C578.049 79.7068 578.401 80.6783 579.066 81.4205C579.731 82.1626 580.658 82.6175 581.652 82.6894L581.473 88.1423C581.034 88.1423 580.578 88.1423 580.14 88.1423C574.814 88.1044 569.52 88.9578 564.476 90.6673L562.91 86.1904C563.816 85.8089 564.538 85.089 564.922 84.1835C565.306 83.2781 565.321 82.2585 564.966 81.3414C564.611 80.4243 563.912 79.6821 563.019 79.2723C562.125 78.8626 561.108 78.8178 560.182 79.1473C559.256 79.4768 558.495 80.1547 558.06 81.037C557.626 81.9193 557.552 82.9363 557.855 83.8721C558.158 84.8078 558.814 85.5884 559.682 86.0481C560.551 86.5077 561.565 86.6102 562.508 86.3336L564.064 90.8106C557.983 92.9888 552.409 96.3859 547.685 100.794L544.858 97.7767C545.368 97.2239 545.705 96.5344 545.83 95.7924C545.954 95.0505 545.859 94.2884 545.557 93.5995C545.255 92.9106 544.759 92.3247 544.13 91.9137C543.5 91.5026 542.765 91.2842 542.013 91.2852C541.387 91.2837 540.769 91.4344 540.214 91.7242C539.658 92.014 539.182 92.4343 538.824 92.9491C538.466 93.4639 538.239 94.0578 538.161 94.6799C538.083 95.302 538.157 95.9337 538.377 96.5209C538.596 97.1081 538.955 97.6332 539.421 98.0513C539.888 98.4694 540.449 98.768 541.057 98.9214C541.664 99.0748 542.299 99.0785 542.909 98.9321C543.518 98.7858 544.082 98.4938 544.554 98.0812L547.372 101.09L546.414 101.985C542.485 105.911 539.27 110.492 536.914 115.523L533.336 113.858C533.473 113.464 533.542 113.049 533.542 112.631C533.54 111.68 533.188 110.764 532.553 110.057C531.917 109.35 531.044 108.902 530.099 108.8C529.155 108.698 528.206 108.949 527.435 109.504C526.663 110.06 526.124 110.88 525.92 111.809C525.716 112.738 525.862 113.709 526.33 114.537C526.797 115.364 527.554 115.99 528.454 116.294C529.354 116.598 530.334 116.558 531.207 116.183C532.08 115.808 532.784 115.124 533.184 114.261L536.762 115.908C534.175 121.588 532.731 127.722 532.513 133.96L527.906 133.807C527.85 132.806 527.406 131.867 526.669 131.188C525.932 130.51 524.959 130.146 523.958 130.174C522.956 130.201 522.006 130.619 521.307 131.338C520.609 132.057 520.218 133.02 520.218 134.022C520.218 135.025 520.609 135.988 521.307 136.706C522.006 137.425 522.956 137.843 523.958 137.871C524.959 137.899 525.932 137.535 526.669 136.856C527.406 136.178 527.85 135.238 527.906 134.237L532.513 134.389C532.513 134.837 532.513 135.285 532.513 135.723C532.507 141.279 533.467 146.793 535.349 152.02L531.565 153.407C531.187 152.525 530.496 151.814 529.624 151.413C528.753 151.011 527.764 150.948 526.849 151.234C525.934 151.52 525.157 152.136 524.669 152.962C524.181 153.789 524.017 154.767 524.208 155.708C524.4 156.648 524.933 157.484 525.704 158.054C526.476 158.624 527.432 158.887 528.386 158.793C529.34 158.698 530.226 158.253 530.871 157.542C531.516 156.832 531.874 155.907 531.878 154.947C531.879 154.563 531.825 154.18 531.717 153.81L535.501 152.422C537.683 158.269 540.997 163.627 545.252 168.19L542.282 170.966C541.555 170.276 540.588 169.897 539.586 169.91C538.585 169.923 537.628 170.326 536.919 171.034C536.209 171.741 535.804 172.698 535.789 173.701C535.773 174.703 536.149 175.672 536.836 176.401C537.523 177.131 538.467 177.563 539.468 177.606C540.469 177.65 541.447 177.301 542.194 176.634C542.942 175.967 543.4 175.034 543.472 174.034C543.543 173.035 543.222 172.046 542.577 171.279L545.538 168.504C545.851 168.826 546.155 169.148 546.432 169.462C549.41 172.458 552.769 175.047 556.425 177.162L533.103 220.195H528.917V221.43H526.859V223.848H633.43V221.43H631.381V220.195H627.194L603.837 177.162C606.972 175.352 609.892 173.193 612.541 170.724L616.325 174.762C615.585 175.42 615.129 176.34 615.056 177.327C614.982 178.315 615.297 179.293 615.932 180.052C616.567 180.812 617.473 181.294 618.457 181.395C619.441 181.497 620.427 181.211 621.203 180.597C621.98 179.983 622.487 179.091 622.617 178.109C622.746 177.127 622.488 176.133 621.897 175.338C621.307 174.544 620.43 174.011 619.453 173.853C618.476 173.696 617.476 173.925 616.665 174.494L612.854 170.429L613.812 169.533C617.744 165.608 620.962 161.027 623.321 155.995L627.525 157.947C627.453 158.24 627.414 158.541 627.409 158.842C627.407 159.811 627.766 160.745 628.416 161.461C629.067 162.177 629.962 162.624 630.925 162.714C631.888 162.803 632.85 162.528 633.621 161.944C634.392 161.36 634.917 160.508 635.092 159.555C635.267 158.603 635.08 157.62 634.568 156.799C634.055 155.978 633.255 155.378 632.323 155.118C631.391 154.858 630.396 154.957 629.533 155.394C628.67 155.831 628.002 156.576 627.66 157.481L623.518 155.574C626.102 149.894 627.542 143.76 627.758 137.523L632.294 137.675C632.315 138.435 632.559 139.173 632.996 139.794C633.434 140.416 634.044 140.895 634.752 141.172C635.46 141.448 636.233 141.509 636.976 141.348C637.718 141.187 638.397 140.81 638.926 140.265C639.456 139.72 639.814 139.031 639.954 138.284C640.095 137.537 640.012 136.764 639.717 136.064C639.422 135.363 638.927 134.765 638.294 134.345C637.661 133.925 636.918 133.7 636.158 133.7H636.176ZM626.524 135.759C626.524 136.189 626.524 136.655 626.524 137.058L613.177 136.619C613.177 136.332 613.177 136.046 613.177 135.723C613.181 131.898 612.518 128.101 611.217 124.504L623.741 119.875C625.587 124.967 626.529 130.343 626.524 135.759ZM612.515 136.601L582.743 135.625C582.733 135.437 582.7 135.25 582.645 135.07L610.6 124.764C611.875 128.289 612.526 132.01 612.523 135.759C612.523 136.037 612.515 136.323 612.515 136.601ZM547.774 134.927L577.546 135.894C577.554 136.084 577.584 136.274 577.635 136.458L549.68 146.755C548.407 143.229 547.759 139.508 547.765 135.759C547.765 135.482 547.765 135.204 547.774 134.927ZM582.18 134.148L603.9 113.768C606.748 116.843 608.974 120.44 610.457 124.361L582.502 134.658C582.414 134.476 582.306 134.305 582.18 134.148ZM581.884 133.825C581.715 133.676 581.529 133.547 581.33 133.44L592.637 105.862C596.781 107.606 600.519 110.192 603.614 113.455L581.884 133.825ZM580.927 133.279C580.771 133.225 580.609 133.189 580.444 133.172L581.41 103.373C585.128 103.52 588.793 104.308 592.243 105.701L580.927 133.279ZM580.033 133.163C579.854 133.171 579.677 133.198 579.505 133.243L569.584 105.119C572.978 103.937 576.546 103.331 580.14 103.328H580.981L580.033 133.163ZM579.138 133.386C578.942 133.472 578.759 133.583 578.592 133.718L558.214 111.978C561.399 109.03 565.14 106.747 569.217 105.262L579.138 133.386ZM578.243 134.013C578.112 134.155 577.998 134.311 577.903 134.479L550.861 121.943C552.582 118.302 554.963 115.011 557.883 112.237L578.243 134.013ZM577.725 134.909C577.654 135.102 577.606 135.304 577.581 135.509L547.819 134.533C547.974 130.346 548.947 126.231 550.682 122.418L577.725 134.909ZM577.814 136.905C577.882 137.054 577.966 137.195 578.064 137.326L577.886 137.657L556.416 157.795C553.571 154.72 551.347 151.123 549.868 147.202L577.814 136.905ZM577.233 138.857L563.751 163.731C561.152 162.194 558.779 160.301 556.702 158.108L577.233 138.857ZM578.7 137.962C578.792 138.024 578.887 138.081 578.986 138.132L567.643 165.647C566.556 165.191 565.496 164.674 564.467 164.098L578.7 137.962ZM579.379 138.293C579.539 138.347 579.704 138.383 579.872 138.401L578.905 168.199C575.187 168.058 571.521 167.27 568.072 165.871L579.379 138.293ZM580.167 168.226H579.335L580.301 138.419C580.479 138.41 580.656 138.383 580.829 138.338L590.732 166.462C587.321 167.62 583.741 168.198 580.14 168.172L580.167 168.226ZM581.231 138.186C581.375 138.124 581.513 138.049 581.643 137.962L595.786 164.107C594.28 164.953 592.706 165.672 591.081 166.256L581.231 138.186ZM583.62 139.815L602.137 159.595C600.443 161.172 598.583 162.562 596.591 163.74L583.62 139.815ZM582.815 138.32L582.278 137.335C582.336 137.259 582.387 137.178 582.43 137.093L609.473 149.629C607.752 153.272 605.375 156.565 602.46 159.344L582.815 138.32ZM582.609 136.708C582.68 136.518 582.728 136.319 582.752 136.117L612.497 136.995C612.339 141.182 611.364 145.298 609.625 149.11L582.609 136.708ZM567.401 166.31L562.32 178.693C560.766 178.05 559.248 177.321 557.776 176.508L564.163 164.734C565.213 165.302 566.294 165.81 567.401 166.256V166.31ZM567.795 166.471C571.317 167.893 575.057 168.695 578.852 168.844L578.422 182.203C573.019 182 567.693 180.848 562.687 178.801L567.795 166.471ZM579.281 168.862H580.176C583.829 168.867 587.457 168.261 590.911 167.071L595.383 179.696C590.491 181.386 585.351 182.246 580.176 182.239C579.746 182.239 579.281 182.239 578.887 182.239L579.281 168.862ZM591.313 166.865C592.97 166.267 594.577 165.537 596.117 164.68L602.495 176.455C600.336 177.648 598.083 178.663 595.759 179.49L591.313 166.865ZM623.607 119.508L611.083 124.137C609.576 120.135 607.307 116.465 604.401 113.33L614.161 104.179C618.285 108.62 621.497 113.828 623.616 119.508H623.607ZM612.935 102.97C613.239 103.274 613.543 103.588 613.83 103.865L604.07 113.016C600.916 109.684 597.105 107.043 592.879 105.262L597.96 92.879C603.565 95.2267 608.653 98.6555 612.935 102.97ZM597.575 92.7178L592.494 105.101C588.984 103.682 585.256 102.879 581.473 102.728L581.911 89.369C587.288 89.5629 592.589 90.6962 597.575 92.7178ZM580.149 89.3422C580.587 89.3422 581.043 89.3422 581.446 89.3422L581.008 102.701H580.113C576.46 102.7 572.833 103.305 569.378 104.492L564.905 91.8672C569.807 90.1802 574.956 89.3267 580.14 89.3422H580.149ZM564.521 92.0283L568.994 104.653C564.832 106.165 561.015 108.494 557.767 111.503L548.624 101.743C553.196 97.4631 558.589 94.1578 564.476 92.0283H564.521ZM547.345 102.97L548.239 102.075L557.382 111.843C554.405 114.676 551.978 118.037 550.225 121.755L538.077 116.141C540.378 111.245 543.514 106.788 547.345 102.97ZM537.925 116.49L550.073 122.105C548.303 125.996 547.31 130.197 547.148 134.47L533.792 134.04C534.003 127.975 535.407 122.011 537.925 116.49ZM533.765 135.759C533.765 135.329 533.765 134.864 533.765 134.47L547.112 134.9C547.112 135.186 547.112 135.473 547.112 135.795C547.107 139.621 547.77 143.418 549.071 147.014L536.547 151.643C534.706 146.551 533.764 141.176 533.765 135.759ZM536.673 152.011L549.197 147.381C550.706 151.382 552.976 155.052 555.879 158.189L546.128 167.34C542.001 162.901 538.788 157.692 536.673 152.011ZM547.345 168.584C547.041 168.28 546.745 167.966 546.45 167.689L556.201 158.484C558.328 160.721 560.755 162.653 563.411 164.224L557.033 175.998C553.493 173.963 550.235 171.47 547.345 168.584ZM626.201 220.195H534.06L557.158 177.583C558.668 178.423 560.224 179.176 561.819 179.839L560.191 183.806C559.812 183.688 559.416 183.627 559.019 183.627C558.066 183.63 557.149 183.985 556.443 184.625C555.737 185.265 555.292 186.144 555.195 187.093C555.098 188.041 555.355 188.992 555.917 189.762C556.478 190.532 557.305 191.066 558.237 191.263C559.169 191.459 560.141 191.303 560.965 190.824C561.789 190.346 562.407 189.579 562.7 188.672C562.992 187.764 562.939 186.781 562.55 185.91C562.161 185.04 561.464 184.345 560.593 183.958L562.213 180.001C567.357 182.078 572.825 183.242 578.369 183.439L578.234 187.504C577.239 187.56 576.305 188.002 575.63 188.737C574.956 189.471 574.594 190.44 574.622 191.438C574.65 192.435 575.065 193.382 575.78 194.078C576.495 194.773 577.452 195.162 578.449 195.162C579.446 195.162 580.404 194.773 581.118 194.078C581.833 193.382 582.248 192.435 582.276 191.438C582.304 190.44 581.943 189.471 581.268 188.737C580.593 188.002 579.659 187.56 578.664 187.504L578.798 183.439C579.245 183.439 579.693 183.439 580.131 183.439C585.456 183.46 590.747 182.592 595.786 180.869L597.173 184.818C596.311 185.223 595.629 185.932 595.258 186.809C594.886 187.686 594.851 188.67 595.16 189.571C595.468 190.473 596.098 191.229 596.928 191.694C597.759 192.159 598.732 192.302 599.661 192.093C600.59 191.885 601.409 191.341 601.962 190.565C602.515 189.79 602.762 188.837 602.657 187.89C602.551 186.943 602.1 186.069 601.39 185.434C600.681 184.799 599.762 184.449 598.81 184.451C598.39 184.45 597.972 184.519 597.575 184.657L596.189 180.726C598.577 179.872 600.892 178.827 603.113 177.601L626.201 220.195ZM603.238 176.025L596.851 164.251C598.892 163.045 600.799 161.625 602.54 160.015L611.683 169.784C609.116 172.173 606.289 174.267 603.256 176.025H603.238ZM612.917 168.584L612.023 169.48L602.88 159.711C605.862 156.883 608.289 153.521 610.037 149.799L622.194 155.413C619.895 160.308 616.762 164.766 612.935 168.584H612.917ZM622.346 155.028L610.198 149.414C611.969 145.522 612.962 141.322 613.123 137.049L626.47 137.487C626.262 143.547 624.867 149.507 622.364 155.028H622.346Z" fill="#95A9A7"/>
<path d="M695.227 166.256H645.515V239.159H695.227V166.256Z" fill="#95A9A7"/>
<path d="M737.656 194.595H687.945V238.738H737.656V194.595Z" fill="#95A9A7"/>
<path d="M523.057 188.113H495.173V225.164H523.057V188.113Z" fill="#95A9A7"/>
<path d="M705.523 96.9261H670.367V239.159H705.523V96.9261Z" fill="#95A9A7"/>
<path d="M763.42 239.159H717.045V156.103H752.211L763.42 239.159Z" fill="#95A9A7"/>
<path d="M783.727 220.195H743.113V239.15H783.727V220.195Z" fill="#95A9A7"/>
<path d="M697.651 67.2081H696.435V105.862H697.651V67.2081Z" fill="#95A9A7"/>
<path d="M701.739 75.5084H700.523V114.162H701.739V75.5084Z" fill="#95A9A7"/>
<path d="M693.939 80.8449H692.722V119.499H693.939V80.8449Z" fill="#95A9A7"/>
<path d="M735.456 149.396H718.861V162.478H735.456V149.396Z" fill="#95A9A7"/>
<path d="M733.649 144.731H720.686V152.082H733.649V144.731Z" fill="#95A9A7"/>
<path d="M745.234 153.228H742.049V158.511H745.234V153.228Z" fill="#95A9A7"/>
<path d="M750.905 148.402H746.361V158.502H750.905V148.402Z" fill="#95A9A7"/>
<path d="M537.182 129.008H495.03V265H537.182V129.008Z" fill="#658280"/>
<path d="M540.331 129.814H491.881V131.193H540.331V129.814Z" fill="#658280"/>
<path d="M539.016 148.922H493.187V150.291H539.016V148.922Z" fill="#658280"/>
<path d="M539.016 167.42H493.187V168.79H539.016V167.42Z" fill="#658280"/>
<path d="M539.016 185.919H493.187V187.289H539.016V185.919Z" fill="#658280"/>
<path d="M539.016 204.418H493.187V205.788H539.016V204.418Z" fill="#658280"/>
<path d="M539.016 222.917H493.187V224.287H539.016V222.917Z" fill="#658280"/>
<path d="M539.016 241.415H493.187V242.785H539.016V241.415Z" fill="#658280"/>
<path d="M541.933 126.062H490.28V129.823H541.933V126.062Z" fill="#658280"/>
<path opacity="0.29" d="M503.207 135.661H498.823V146.522H503.207V135.661Z" fill="#658280"/>
<path d="M513.002 135.661H508.619V146.522H513.002V135.661Z" fill="#658280"/>
<path d="M522.798 135.661H518.414V146.522H522.798V135.661Z" fill="#658280"/>
<path d="M532.593 135.661H528.21V146.522H532.593V135.661Z" fill="#658280"/>
<path d="M503.207 153.425H498.823V164.286H503.207V153.425Z" fill="#658280"/>
<path opacity="0.29" d="M513.002 153.425H508.619V164.286H513.002V153.425Z" fill="#658280"/>
<path d="M522.798 153.425H518.414V164.286H522.798V153.425Z" fill="#658280"/>
<path d="M532.593 153.425H528.21V164.286H532.593V153.425Z" fill="#658280"/>
<path d="M503.207 171.924H498.823V182.785H503.207V171.924Z" fill="#658280"/>
<path d="M513.002 171.924H508.619V182.785H513.002V171.924Z" fill="#658280"/>
<path d="M522.798 171.924H518.414V182.785H522.798V171.924Z" fill="#658280"/>
<path opacity="0.29" d="M532.593 171.924H528.21V182.785H532.593V171.924Z" fill="#658280"/>
<path d="M503.207 190.423H498.823V201.284H503.207V190.423Z" fill="#658280"/>
<path opacity="0.29" d="M513.002 190.423H508.619V201.284H513.002V190.423Z" fill="#658280"/>
<path opacity="0.29" d="M522.798 190.423H518.414V201.284H522.798V190.423Z" fill="#658280"/>
<path d="M532.593 190.423H528.21V201.284H532.593V190.423Z" fill="#658280"/>
<path opacity="0.29" d="M503.207 208.922H498.823V219.783H503.207V208.922Z" fill="#658280"/>
<path d="M513.002 208.922H508.619V219.783H513.002V208.922Z" fill="#658280"/>
<path d="M522.798 208.922H518.414V219.783H522.798V208.922Z" fill="#658280"/>
<path d="M532.593 208.922H528.21V219.783H532.593V208.922Z" fill="#658280"/>
<path d="M503.207 227.42H498.823V238.282H503.207V227.42Z" fill="#658280"/>
<path d="M513.002 227.42H508.619V238.282H513.002V227.42Z" fill="#658280"/>
<path opacity="0.29" d="M522.798 227.42H518.414V238.282H522.798V227.42Z" fill="#658280"/>
<path d="M532.593 227.42H528.21V238.282H532.593V227.42Z" fill="#658280"/>
<path d="M503.207 245.919H498.823V256.78H503.207V245.919Z" fill="#658280"/>
<path opacity="0.29" d="M513.002 245.919H508.619V256.78H513.002V245.919Z" fill="#658280"/>
<path d="M522.798 245.919H518.414V256.78H522.798V245.919Z" fill="#658280"/>
<path opacity="0.29" d="M532.593 245.919H528.21V256.78H532.593V245.919Z" fill="#658280"/>
<path d="M512.027 120.878H497.687V127.942H512.027V120.878Z" fill="#658280"/>
<path d="M513.002 120.672H496.721V121.881H513.002V120.672Z" fill="#658280"/>
<path d="M434.611 265H378.467V135.795L434.611 122.042V265Z" fill="#658280"/>
<path d="M380.927 133.521H375.998V265.009H380.927V133.521Z" fill="#658280"/>
<path d="M394.972 129.814H390.034V265H394.972V129.814Z" fill="#658280"/>
<path d="M408.999 125.964H404.07V265H408.999V125.964Z" fill="#658280"/>
<path d="M423.044 122.83H418.115V265H423.044V122.83Z" fill="#658280"/>
<path d="M437.08 119.49H432.151V265H437.08V119.49Z" fill="#658280"/>
<path opacity="0.29" d="M388.755 144.552H382.207V154.536H388.755V144.552Z" fill="#658280"/>
<path opacity="0.29" d="M402.8 144.552H396.251V154.536H402.8V144.552Z" fill="#658280"/>
<path d="M416.835 144.552H410.287V154.536H416.835V144.552Z" fill="#658280"/>
<path opacity="0.29" d="M430.871 144.552H424.323V154.536H430.871V144.552Z" fill="#658280"/>
<path d="M388.755 161.94H382.207V171.924H388.755V161.94Z" fill="#658280"/>
<path d="M402.8 161.94H396.251V171.924H402.8V161.94Z" fill="#658280"/>
<path opacity="0.29" d="M416.835 161.94H410.287V171.924H416.835V161.94Z" fill="#658280"/>
<path opacity="0.29" d="M430.871 161.94H424.323V171.924H430.871V161.94Z" fill="#658280"/>
<path opacity="0.29" d="M388.755 179.329H382.207V189.313H388.755V179.329Z" fill="#658280"/>
<path opacity="0.29" d="M402.8 179.329H396.251V189.313H402.8V179.329Z" fill="#658280"/>
<path opacity="0.29" d="M416.835 179.329H410.287V189.313H416.835V179.329Z" fill="#658280"/>
<path d="M430.871 179.329H424.323V189.313H430.871V179.329Z" fill="#658280"/>
<path opacity="0.29" d="M388.755 196.708H382.207V206.692H388.755V196.708Z" fill="#658280"/>
<path d="M402.8 196.708H396.251V206.692H402.8V196.708Z" fill="#658280"/>
<path opacity="0.29" d="M416.835 196.708H410.287V206.692H416.835V196.708Z" fill="#658280"/>
<path opacity="0.29" d="M430.871 196.708H424.323V206.692H430.871V196.708Z" fill="#658280"/>
<path opacity="0.29" d="M388.755 214.097H382.207V224.081H388.755V214.097Z" fill="#658280"/>
<path opacity="0.29" d="M402.8 214.097H396.251V224.081H402.8V214.097Z" fill="#658280"/>
<path d="M416.835 214.097H410.287V224.081H416.835V214.097Z" fill="#658280"/>
<path opacity="0.29" d="M430.871 214.097H424.323V224.081H430.871V214.097Z" fill="#658280"/>
<path d="M388.755 231.486H382.207V241.469H388.755V231.486Z" fill="#658280"/>
<path d="M402.8 231.486H396.251V241.469H402.8V231.486Z" fill="#658280"/>
<path opacity="0.29" d="M416.835 231.486H410.287V241.469H416.835V231.486Z" fill="#658280"/>
<path opacity="0.29" d="M430.871 231.486H424.323V241.469H430.871V231.486Z" fill="#658280"/>
<path opacity="0.29" d="M388.755 248.874H382.207V258.858H388.755V248.874Z" fill="#658280"/>
<path d="M402.8 248.874H396.251V258.858H402.8V248.874Z" fill="#658280"/>
<path opacity="0.29" d="M416.835 248.874H410.287V258.858H416.835V248.874Z" fill="#658280"/>
<path d="M430.871 248.874H424.323V258.858H430.871V248.874Z" fill="#658280"/>
<path d="M218.294 141.982V143.325H216.952V147.149H240.452V265H201.896V153.291V147.149V143.325H200.501V141.982H218.294Z" fill="#658280"/>
<path d="M317.001 195.518H283.973V265.009H317.001V195.518Z" fill="#658280"/>
<path d="M166.883 179.589H140.037V265.009H166.883V179.589Z" fill="#658280"/>
<path d="M190.813 197.38H161.56V265H190.813V197.38Z" fill="#658280"/>
<path d="M161.569 176.159H149.698V186.385H161.569V176.159Z" fill="#658280"/>
<path d="M194.758 196.27H163.573V198.768H194.758V196.27Z" fill="#658280"/>
<path d="M220.468 226.382H187.673V265H220.468V226.382Z" fill="#658280"/>
<path d="M108.351 194.971H81.6746V265H108.351V194.971Z" fill="#658280"/>
<path d="M93.6171 229.874H58.523V265H93.6171V229.874Z" fill="#658280"/>
<path d="M41.8302 224.125H19.8774V265H41.8302V224.125Z" fill="#658280"/>
<path d="M89.4484 252.196H37.5631V265H89.4484V252.196Z" fill="#658280"/>
<path d="M26.5957 248.059H0V265H26.5957V248.059Z" fill="#658280"/>
<path d="M149.689 239.159H108.351V265H149.689V239.159Z" fill="#658280"/>
<path d="M294.028 253.87H229.628V265H294.028V253.87Z" fill="#658280"/>
<path d="M408.203 253.87H343.802V265H408.203V253.87Z" fill="#658280"/>
<path d="M291.515 221.18H267.039L256.689 259.431H291.515V221.18Z" fill="#658280"/>
<path d="M303.511 165.522H302.831V207.955H303.511V165.522Z" fill="#658280"/>
<path d="M307.152 179.884H306.239V204.928H307.152V179.884Z" fill="#658280"/>
<path d="M313.745 184.316H301.364V196.709H313.745V184.316Z" fill="#658280"/>
<path d="M315.668 183.358H299.271V184.469H315.668V183.358Z" fill="#658280"/>
<path d="M351.004 229.157H310.99V265H351.004V229.157Z" fill="#658280"/>
<path d="M369.056 189.707H343.346V258.858H369.056V189.707Z" fill="#658280"/>
<path d="M484.823 202.708H443.753V265H484.823V202.708Z" fill="#658280"/>
<path d="M477.702 242.051H430.871V265.009H477.702V242.051Z" fill="#658280"/>
<path d="M513.002 256.789H482.551V265.009H513.002V256.789Z" fill="#658280"/>
<path d="M578.959 242.051H529.453V265.009H578.959V242.051Z" fill="#658280"/>
<path d="M549.17 265H610.779V181.952H549.17V265Z" fill="#658280"/>
<path d="M547.586 181.944H614.375V178.756H547.586V181.944Z" fill="#658280"/>
<path d="M580.981 186.958H608.051V170.115H580.981V186.958Z" fill="#658280"/>
<path d="M567.589 180.359H572.133V170.115H567.589V180.359Z" fill="#658280"/>
<path d="M558.035 180.359H563.036V170.115H558.035V180.359Z" fill="#658280"/>
<path d="M653.137 265H701.9V143.71H653.137V265Z" fill="#658280"/>
<path d="M651.742 145.044H703.278V141.615H651.742V145.044Z" fill="#658280"/>
<path d="M654.765 153.524H700.254V137.228H654.765V153.524Z" fill="#658280"/>
<path d="M678.758 148.366H696.774V130.566H678.758V148.366Z" fill="#658280"/>
<path d="M686.353 135.589H696.774V126.214H689.296L686.353 135.589Z" fill="#658280"/>
<path d="M691.559 139.305H692.57V118.433H691.559V139.305Z" fill="#658280"/>
<path d="M691.165 117.35C691.201 117.514 691.282 117.666 691.399 117.786C691.516 117.907 691.665 117.992 691.828 118.032C691.991 118.071 692.162 118.065 692.322 118.012C692.481 117.959 692.622 117.862 692.73 117.732C692.837 117.603 692.905 117.445 692.927 117.279C692.949 117.112 692.923 116.942 692.854 116.789C692.784 116.636 692.672 116.506 692.532 116.414C692.391 116.321 692.228 116.27 692.06 116.267C691.799 116.294 691.559 116.423 691.391 116.625C691.224 116.828 691.143 117.088 691.165 117.35Z" fill="#658280"/>
<path d="M717.045 214.93H695.218V265H717.045V214.93Z" fill="#658280"/>
<path d="M657.941 190.512H633.054V265H657.941V190.512Z" fill="#658280"/>
<path d="M645.515 265H610.448V225.164L640.04 238.282L645.515 265Z" fill="#658280"/>
<path d="M763.42 243.367H709.88V265H763.42V243.367Z" fill="#658280"/>
<path d="M774.745 178.631H743.641V265H774.745V178.631Z" fill="#658280"/>
<path d="M819 248.874H767.473V265H819V248.874Z" fill="#658280"/>
<path d="M776.168 177.046H742.049V179.875H776.168V177.046Z" fill="#658280"/>
<path d="M770.577 164.859H769.897V182.266H770.577V164.859Z" fill="#658280"/>
<path d="M766.032 167.062H765.352V181.021H766.032V167.062Z" fill="#658280"/>
<path d="M786.259 211.169H772.393V250.736H792.172L786.259 211.169Z" fill="#658280"/>
<g opacity="0.52">
<path d="M144.84 183.913H142.81V185.946H144.84V183.913Z" fill="white"/>
<path d="M148.92 183.913H146.889V185.946H148.92V183.913Z" fill="white"/>
<path d="M144.84 188.686H142.81V190.718H144.84V188.686Z" fill="white"/>
<path d="M148.92 188.686H146.889V190.718H148.92V188.686Z" fill="white"/>
<path d="M144.84 193.306H142.81V195.339H144.84V193.306Z" fill="white"/>
<path d="M153.455 183.913H151.424V185.946H153.455V183.913Z" fill="white"/>
</g>
<path opacity="0.5" d="M292.901 122.83H291.515V130.503H292.901V122.83Z" fill="white"/>
<path opacity="0.5" d="M297.678 122.83H296.292V130.503H297.678V122.83Z" fill="white"/>
<path opacity="0.5" d="M302.455 122.83H301.069V130.503H302.455V122.83Z" fill="white"/>
<path opacity="0.5" d="M307.232 122.83H305.846V130.503H307.232V122.83Z" fill="white"/>
<path opacity="0.5" d="M312.009 122.83H310.623V130.503H312.009V122.83Z" fill="white"/>
<path opacity="0.5" d="M316.786 122.83H315.4V130.503H316.786V122.83Z" fill="white"/>
<path opacity="0.5" d="M321.554 122.83H320.168V130.503H321.554V122.83Z" fill="white"/>
<path opacity="0.5" d="M326.331 122.83H324.945V130.503H326.331V122.83Z" fill="white"/>
<path opacity="0.5" d="M331.109 122.83H329.722V130.503H331.109V122.83Z" fill="white"/>
<path opacity="0.5" d="M335.886 122.83H334.499V130.503H335.886V122.83Z" fill="white"/>
<path opacity="0.5" d="M340.663 122.83H339.276V130.503H340.663V122.83Z" fill="white"/>
<path opacity="0.5" d="M292.901 133.521H291.515V141.194H292.901V133.521Z" fill="white"/>
<path opacity="0.5" d="M297.678 133.521H296.292V141.194H297.678V133.521Z" fill="white"/>
<path opacity="0.5" d="M302.455 133.521H301.069V141.194H302.455V133.521Z" fill="white"/>
<path opacity="0.5" d="M307.232 133.521H305.846V141.194H307.232V133.521Z" fill="white"/>
<path opacity="0.5" d="M312.009 133.521H310.623V141.194H312.009V133.521Z" fill="white"/>
<path opacity="0.5" d="M316.786 133.521H315.4V141.194H316.786V133.521Z" fill="white"/>
<path opacity="0.5" d="M321.554 133.521H320.168V141.194H321.554V133.521Z" fill="white"/>
<path opacity="0.5" d="M326.331 133.521H324.945V141.194H326.331V133.521Z" fill="white"/>
<path opacity="0.5" d="M331.109 133.521H329.722V141.194H331.109V133.521Z" fill="white"/>
<path opacity="0.5" d="M335.886 133.521H334.499V141.194H335.886V133.521Z" fill="white"/>
<path opacity="0.5" d="M340.663 133.521H339.276V141.194H340.663V133.521Z" fill="white"/>
<path opacity="0.5" d="M292.901 144.203H291.515V151.876H292.901V144.203Z" fill="white"/>
<path opacity="0.5" d="M297.678 144.203H296.292V151.876H297.678V144.203Z" fill="white"/>
<path opacity="0.5" d="M302.455 144.203H301.069V151.876H302.455V144.203Z" fill="white"/>
<path opacity="0.5" d="M307.232 144.203H305.846V151.876H307.232V144.203Z" fill="white"/>
<path opacity="0.5" d="M312.009 144.203H310.623V151.876H312.009V144.203Z" fill="white"/>
<path opacity="0.5" d="M316.786 144.203H315.4V151.876H316.786V144.203Z" fill="white"/>
<path opacity="0.5" d="M321.554 144.203H320.168V151.876H321.554V144.203Z" fill="white"/>
<path opacity="0.5" d="M326.331 144.203H324.945V151.876H326.331V144.203Z" fill="white"/>
<path opacity="0.5" d="M331.109 144.203H329.722V151.876H331.109V144.203Z" fill="white"/>
<path opacity="0.5" d="M335.886 144.203H334.499V151.876H335.886V144.203Z" fill="white"/>
<path opacity="0.5" d="M340.663 144.203H339.276V151.876H340.663V144.203Z" fill="white"/>
<path opacity="0.5" d="M307.232 154.894H305.846V162.567H307.232V154.894Z" fill="white"/>
<path opacity="0.5" d="M312.009 154.894H310.623V162.567H312.009V154.894Z" fill="white"/>
<path opacity="0.5" d="M316.786 154.894H315.4V162.567H316.786V154.894Z" fill="white"/>
<path opacity="0.5" d="M321.554 154.894H320.168V162.567H321.554V154.894Z" fill="white"/>
<path opacity="0.5" d="M326.331 154.894H324.945V162.567H326.331V154.894Z" fill="white"/>
<path opacity="0.5" d="M331.109 154.894H329.722V162.567H331.109V154.894Z" fill="white"/>
<path opacity="0.5" d="M335.886 154.894H334.499V162.567H335.886V154.894Z" fill="white"/>
<path opacity="0.5" d="M340.663 154.894H339.276V162.567H340.663V154.894Z" fill="white"/>
<path opacity="0.5" d="M312.009 166.176H310.623V173.849H312.009V166.176Z" fill="white"/>
<path opacity="0.5" d="M316.786 166.176H315.4V173.849H316.786V166.176Z" fill="white"/>
<path opacity="0.5" d="M321.554 166.176H320.168V173.849H321.554V166.176Z" fill="white"/>
<path opacity="0.5" d="M326.331 166.176H324.945V173.849H326.331V166.176Z" fill="white"/>
<path opacity="0.5" d="M331.109 166.176H329.722V173.849H331.109V166.176Z" fill="white"/>
<path opacity="0.5" d="M335.886 166.176H334.499V173.849H335.886V166.176Z" fill="white"/>
<path opacity="0.5" d="M340.663 166.176H339.276V173.849H340.663V166.176Z" fill="white"/>
<path opacity="0.33" d="M387.118 141.884H383.844V150.193H387.118V141.884Z" fill="white"/>
<path opacity="0.33" d="M387.118 157.786H383.844V166.095H387.118V157.786Z" fill="white"/>
<path opacity="0.33" d="M387.118 173.679H383.844V181.988H387.118V173.679Z" fill="white"/>
<path opacity="0.33" d="M387.118 189.581H383.844V197.89H387.118V189.581Z" fill="white"/>
<path opacity="0.33" d="M387.118 204.57H383.844V212.879H387.118V204.57Z" fill="white"/>
<path opacity="0.33" d="M387.118 220.463H383.844V228.772H387.118V220.463Z" fill="white"/>
<path opacity="0.33" d="M401.163 141.884H397.888V150.193H401.163V141.884Z" fill="white"/>
<path opacity="0.33" d="M401.163 157.786H397.888V166.095H401.163V157.786Z" fill="white"/>
<path opacity="0.33" d="M401.163 173.679H397.888V181.988H401.163V173.679Z" fill="white"/>
<path opacity="0.33" d="M401.163 189.581H397.888V197.89H401.163V189.581Z" fill="white"/>
<path opacity="0.33" d="M401.163 204.57H397.888V212.879H401.163V204.57Z" fill="white"/>
<path opacity="0.33" d="M401.163 220.463H397.888V228.772H401.163V220.463Z" fill="white"/>
<path opacity="0.33" d="M415.198 141.884H411.924V150.193H415.198V141.884Z" fill="white"/>
<path opacity="0.33" d="M415.198 157.786H411.924V166.095H415.198V157.786Z" fill="white"/>
<path opacity="0.33" d="M415.198 173.679H411.924V181.988H415.198V173.679Z" fill="white"/>
<path opacity="0.33" d="M415.198 189.581H411.924V197.89H415.198V189.581Z" fill="white"/>
<path opacity="0.33" d="M415.198 204.57H411.924V212.879H415.198V204.57Z" fill="white"/>
<path opacity="0.33" d="M415.198 220.463H411.924V228.772H415.198V220.463Z" fill="white"/>
<path opacity="0.33" d="M429.234 141.884H425.96V150.193H429.234V141.884Z" fill="white"/>
<path opacity="0.33" d="M429.234 157.786H425.96V166.095H429.234V157.786Z" fill="white"/>
<path opacity="0.33" d="M429.234 173.679H425.96V181.988H429.234V173.679Z" fill="white"/>
<path opacity="0.33" d="M429.234 189.581H425.96V197.89H429.234V189.581Z" fill="white"/>
<path opacity="0.33" d="M429.234 204.57H425.96V212.879H429.234V204.57Z" fill="white"/>
<path opacity="0.33" d="M429.234 220.463H425.96V228.772H429.234V220.463Z" fill="white"/>
<path opacity="0.5" d="M333.837 25.9753H331.109V33.2459H333.837V25.9753Z" fill="white"/>
<path opacity="0.5" d="M340.564 25.9753H337.836V33.2459H340.564V25.9753Z" fill="white"/>
<path opacity="0.5" d="M347.282 25.9753H344.554V33.2459H347.282V25.9753Z" fill="white"/>
<path opacity="0.5" d="M354.001 25.9753H351.272V33.2459H354.001V25.9753Z" fill="white"/>
<path opacity="0.5" d="M333.837 38.09H331.109V45.3605H333.837V38.09Z" fill="white"/>
<path opacity="0.5" d="M340.564 38.09H337.836V45.3605H340.564V38.09Z" fill="white"/>
<path opacity="0.5" d="M347.282 38.09H344.554V45.3605H347.282V38.09Z" fill="white"/>
<path opacity="0.5" d="M354.001 38.09H351.272V45.3605H354.001V38.09Z" fill="white"/>
<path opacity="0.5" d="M333.837 50.2046H331.109V57.4752H333.837V50.2046Z" fill="white"/>
<path opacity="0.5" d="M340.564 50.2046H337.836V57.4752H340.564V50.2046Z" fill="white"/>
<path opacity="0.5" d="M361.631 25.9753H358.903V33.2459H361.631V25.9753Z" fill="white"/>
<path opacity="0.4" d="M151.433 99.666H149.698V106.337H151.433V99.666Z" fill="white"/>
<path opacity="0.4" d="M157.543 99.666H155.808V106.337H157.543V99.666Z" fill="white"/>
<path opacity="0.4" d="M164.691 99.666H162.956V106.337H164.691V99.666Z" fill="white"/>
<path opacity="0.4" d="M170.81 99.666H169.074V106.337H170.81V99.666Z" fill="white"/>
<path opacity="0.4" d="M137.854 99.666H136.118V106.337H137.854V99.666Z" fill="white"/>
<path opacity="0.4" d="M143.964 99.666H142.228V106.337H143.964V99.666Z" fill="white"/>
<path opacity="0.4" d="M151.433 111.243H149.698V117.914H151.433V111.243Z" fill="white"/>
<path opacity="0.4" d="M157.543 111.243H155.808V117.914H157.543V111.243Z" fill="white"/>
<path opacity="0.4" d="M164.691 111.243H162.956V117.914H164.691V111.243Z" fill="white"/>
<path opacity="0.4" d="M170.81 111.243H169.074V117.914H170.81V111.243Z" fill="white"/>
<path opacity="0.4" d="M137.854 111.243H136.118V117.914H137.854V111.243Z" fill="white"/>
<path opacity="0.4" d="M143.964 111.243H142.228V117.914H143.964V111.243Z" fill="white"/>
<path opacity="0.4" d="M151.433 122.821H149.698V129.491H151.433V122.821Z" fill="white"/>
<path opacity="0.4" d="M157.543 122.821H155.808V129.491H157.543V122.821Z" fill="white"/>
<path opacity="0.4" d="M164.691 122.821H162.956V129.491H164.691V122.821Z" fill="white"/>
<path opacity="0.4" d="M170.81 122.821H169.074V129.491H170.81V122.821Z" fill="white"/>
<path opacity="0.4" d="M137.854 122.821H136.118V129.491H137.854V122.821Z" fill="white"/>
<path opacity="0.4" d="M143.964 122.821H142.228V129.491H143.964V122.821Z" fill="white"/>
<path opacity="0.5" d="M475.681 150.766H472.997V161.108H475.681V150.766Z" fill="white"/>
<path opacity="0.5" d="M483.893 150.766H481.209V161.108H483.893V150.766Z" fill="white"/>
<path opacity="0.5" d="M491.622 150.766H488.938V161.108H491.622V150.766Z" fill="white"/>
<path opacity="0.33" d="M659.99 152.915H657.95V158.726H659.99V152.915Z" fill="white"/>
<path opacity="0.33" d="M666.377 152.915H664.337V158.726H666.377V152.915Z" fill="white"/>
<path opacity="0.33" d="M659.99 152.915H657.95V158.726H659.99V152.915Z" fill="white"/>
<path opacity="0.33" d="M666.377 152.915H664.337V158.726H666.377V152.915Z" fill="white"/>
<path opacity="0.33" d="M672.406 152.915H670.367V158.726H672.406V152.915Z" fill="white"/>
<path opacity="0.33" d="M678.794 152.915H676.754V158.726H678.794V152.915Z" fill="white"/>
<path opacity="0.33" d="M659.99 163.346H657.95V169.157H659.99V163.346Z" fill="white"/>
<path opacity="0.33" d="M666.377 163.346H664.337V169.157H666.377V163.346Z" fill="white"/>
<path opacity="0.33" d="M659.99 163.346H657.95V169.157H659.99V163.346Z" fill="white"/>
<path opacity="0.33" d="M666.377 163.346H664.337V169.157H666.377V163.346Z" fill="white"/>
<path opacity="0.33" d="M672.406 163.346H670.367V169.157H672.406V163.346Z" fill="white"/>
<path opacity="0.33" d="M678.794 163.346H676.754V169.157H678.794V163.346Z" fill="white"/>
<path opacity="0.33" d="M659.99 174.449H657.95V180.26H659.99V174.449Z" fill="white"/>
<path opacity="0.33" d="M666.377 174.449H664.337V180.26H666.377V174.449Z" fill="white"/>
<path opacity="0.33" d="M659.99 174.449H657.95V180.26H659.99V174.449Z" fill="white"/>
<path opacity="0.33" d="M666.377 174.449H664.337V180.26H666.377V174.449Z" fill="white"/>
<path opacity="0.33" d="M672.406 174.449H670.367V180.26H672.406V174.449Z" fill="white"/>
<path opacity="0.33" d="M678.794 174.449H676.754V180.26H678.794V174.449Z" fill="white"/>
<path opacity="0.33" d="M685.771 152.915H683.732V158.726H685.771V152.915Z" fill="white"/>
<path opacity="0.33" d="M685.771 163.346H683.732V169.157H685.771V163.346Z" fill="white"/>
<path opacity="0.33" d="M692.158 152.915H690.119V158.726H692.158V152.915Z" fill="white"/>
<path opacity="0.33" d="M501.015 135.661H498.823V144.731H501.015V135.661Z" fill="white"/>
<path opacity="0.33" d="M511.911 135.661H509.719V144.731H511.911V135.661Z" fill="white"/>
<path opacity="0.33" d="M522.798 135.661H520.606V144.731H522.798V135.661Z" fill="white"/>
<path opacity="0.33" d="M533.685 135.661H531.493V144.731H533.685V135.661Z" fill="white"/>
<path opacity="0.33" d="M501.015 154.321H498.823V163.391H501.015V154.321Z" fill="white"/>
<path opacity="0.33" d="M511.911 154.321H509.719V163.391H511.911V154.321Z" fill="white"/>
<path opacity="0.33" d="M522.798 154.321H520.606V163.391H522.798V154.321Z" fill="white"/>
<path opacity="0.33" d="M533.685 154.321H531.493V163.391H533.685V154.321Z" fill="white"/>
<path opacity="0.33" d="M501.015 173.446H498.823V182.517H501.015V173.446Z" fill="white"/>
<path opacity="0.33" d="M511.911 173.446H509.719V182.517H511.911V173.446Z" fill="white"/>
<path opacity="0.33" d="M522.798 173.446H520.606V182.517H522.798V173.446Z" fill="white"/>
<path opacity="0.33" d="M533.685 173.446H531.493V182.517H533.685V173.446Z" fill="white"/>
<path opacity="0.33" d="M501.015 192.572H498.823V201.642H501.015V192.572Z" fill="white"/>
<path opacity="0.33" d="M511.911 192.572H509.719V201.642H511.911V192.572Z" fill="white"/>
<path opacity="0.33" d="M522.798 192.572H520.606V201.642H522.798V192.572Z" fill="white"/>
<path opacity="0.33" d="M533.685 192.572H531.493V201.642H533.685V192.572Z" fill="white"/>
<path opacity="0.33" d="M501.015 209.942H498.823V219.013H501.015V209.942Z" fill="white"/>
<path opacity="0.33" d="M511.911 209.942H509.719V219.013H511.911V209.942Z" fill="white"/>
<path opacity="0.33" d="M522.798 209.942H520.606V219.013H522.798V209.942Z" fill="white"/>
<path opacity="0.33" d="M501.015 229.319H498.823V238.389H501.015V229.319Z" fill="white"/>
<path opacity="0.33" d="M511.911 229.319H509.719V238.389H511.911V229.319Z" fill="white"/>
<path opacity="0.33" d="M522.798 229.319H520.606V238.389H522.798V229.319Z" fill="white"/>
<path opacity="0.33" d="M533.685 209.942H531.493V219.013H533.685V209.942Z" fill="white"/>
<path opacity="0.33" d="M748.633 183.591H746.396V188.793H748.633V183.591Z" fill="white"/>
<path opacity="0.33" d="M748.633 191.999H746.396V197.201H748.633V191.999Z" fill="white"/>
<path opacity="0.33" d="M754.376 183.591H752.14V188.793H754.376V183.591Z" fill="white"/>
</g>
</g>
<defs>
<clipPath id="clip0_26_94">
<rect width="819" height="265" rx="1" fill="white"/>
</clipPath>
</defs>
</svg>
